<svg width="81" height="80" viewBox="0 0 81 80" fill="none" xmlns="http://www.w3.org/2000/svg">
<rect x="0.615234" y="-79.9902" width="160" height="160" rx="80" fill="#1D1C20"/>
<g clip-path="url(#clip0_2205_2173)">
<path d="M44.9707 30.0586C44.9707 29.082 44.7852 28.1641 44.4141 27.3047C44.0234 26.4453 43.5107 25.6934 42.876 25.0488C42.2412 24.4043 41.4844 23.8965 40.6055 23.5254C39.7461 23.1348 38.8281 22.9395 37.8516 22.9395C36.875 22.9395 35.957 23.1348 35.0977 23.5254C34.2188 23.8965 33.457 24.4043 32.8125 25.0488C32.168 25.6934 31.6602 26.4453 31.2891 27.3047C30.918 28.1641 30.7324 29.082 30.7324 30.0586C30.7324 31.0547 30.918 31.9824 31.2891 32.8418C31.6602 33.7012 32.168 34.4531 32.8125 35.0977C33.457 35.7422 34.209 36.25 35.0684 36.6211C35.9473 36.9922 36.875 37.1777 37.8516 37.1777C38.0859 37.1777 38.3203 37.168 38.5547 37.1484C38.7891 37.1289 39.0332 37.0898 39.2871 37.0312C39.0723 37.9688 38.8086 38.8574 38.4961 39.6973C38.2031 40.5371 37.8906 41.3184 37.5586 42.041C37.2266 42.7637 36.8945 43.4277 36.5625 44.0332C36.2305 44.6191 35.9473 45.127 35.7129 45.5566C35.5762 45.7715 35.459 45.9717 35.3613 46.1572C35.2637 46.3428 35.1758 46.5039 35.0977 46.6406C35.0391 46.7578 34.9805 46.9287 34.9219 47.1533C34.8633 47.3779 34.9316 47.5684 35.127 47.7246C35.1855 47.7832 35.249 47.8271 35.3174 47.8564C35.3857 47.8857 35.459 47.9004 35.5371 47.9004C35.6738 47.9004 35.8252 47.8564 35.9912 47.7686C36.1572 47.6807 36.3086 47.5879 36.4453 47.4902C36.6406 47.373 36.8848 47.2119 37.1777 47.0068C37.4707 46.8018 37.8516 46.5234 38.3203 46.1719L38.3496 46.1426C39.1895 45.4004 39.9512 44.5947 40.6348 43.7256C41.3184 42.8564 41.9238 41.9434 42.4512 40.9863C42.8809 40.2051 43.2568 39.3896 43.5791 38.54C43.9014 37.6904 44.1699 36.8164 44.3848 35.918C44.7363 34.4727 44.9268 33.2178 44.9561 32.1533C44.9854 31.0889 44.9902 30.3906 44.9707 30.0586ZM43.3301 35.6543C43.0957 36.6113 42.8027 37.5391 42.4512 38.4375C42.0996 39.3164 41.6895 40.1611 41.2207 40.9717C40.752 41.7822 40.2148 42.5488 39.6094 43.2715C39.0234 43.9941 38.3789 44.668 37.6758 45.293C37.5586 45.3906 37.4121 45.5029 37.2363 45.6299C37.0605 45.7568 36.875 45.8887 36.6797 46.0254C36.9531 45.5371 37.2754 44.9609 37.6465 44.2969C37.998 43.6328 38.3594 42.8906 38.7305 42.0703C39.1016 41.25 39.4434 40.3613 39.7559 39.4043C40.0879 38.4473 40.3418 37.4316 40.5176 36.3574L40.6641 35.4492L39.8145 35.7715C39.4824 35.8691 39.1553 35.9473 38.833 36.0059C38.5107 36.0645 38.1836 36.0938 37.8516 36.0938C37.0312 36.0938 36.25 35.9375 35.5078 35.625C34.7852 35.3125 34.1504 34.8828 33.6035 34.3359C33.0566 33.7891 32.627 33.1445 32.3145 32.4023C32.002 31.6797 31.8457 30.8984 31.8457 30.0586C31.8457 29.2383 32.002 28.457 32.3145 27.7148C32.627 26.9922 33.0566 26.3574 33.6035 25.8105C34.1504 25.2637 34.7852 24.834 35.5078 24.5215C36.2305 24.209 37.0117 24.0527 37.8516 24.0527C38.6719 24.0527 39.4531 24.209 40.1953 24.5215C40.918 24.834 41.5527 25.2637 42.0996 25.8105C42.6465 26.3574 43.0762 26.9922 43.3887 27.7148C43.7207 28.4375 43.8867 29.2188 43.8867 30.0586V30.0879C43.8867 30.1074 43.8867 30.1172 43.8867 30.1172C43.8867 30.1172 43.8867 30.127 43.8867 30.1465C43.9062 30.4395 43.9014 31.0889 43.8721 32.0947C43.8428 33.1006 43.6621 34.2871 43.3301 35.6543ZM60.5859 30.0879C60.5859 29.0918 60.4004 28.1641 60.0293 27.3047C59.6582 26.4453 59.1504 25.6934 58.5059 25.0488C57.8613 24.4043 57.1094 23.8965 56.25 23.5254C55.3711 23.1543 54.4434 22.9688 53.4668 22.9688C52.4902 22.9688 51.5723 23.1543 50.7129 23.5254C49.8535 23.8965 49.1016 24.4043 48.457 25.0488C47.8125 25.6934 47.3047 26.4453 46.9336 27.3047C46.5625 28.1641 46.377 29.082 46.377 30.0586C46.377 31.0547 46.5625 31.9824 46.9336 32.8418C47.3047 33.7012 47.8125 34.4531 48.457 35.0977C49.1016 35.7422 49.8535 36.25 50.7129 36.6211C51.5723 36.9922 52.4902 37.1777 53.4668 37.1777C53.7012 37.1777 53.9404 37.168 54.1846 37.1484C54.4287 37.1289 54.668 37.0898 54.9023 37.0312C54.6875 37.9688 54.4336 38.8574 54.1406 39.6973C53.8281 40.5371 53.5059 41.3184 53.1738 42.041C52.8418 42.7637 52.5098 43.418 52.1777 44.0039C51.8652 44.6094 51.582 45.127 51.3281 45.5566C51.1914 45.7715 51.0742 45.9668 50.9766 46.1426C50.8789 46.3184 50.8008 46.4746 50.7422 46.6113C50.6836 46.748 50.6201 46.9287 50.5518 47.1533C50.4834 47.3779 50.5469 47.5684 50.7422 47.7246C50.8008 47.7832 50.8643 47.8271 50.9326 47.8564C51.001 47.8857 51.0742 47.9004 51.1523 47.9004C51.3086 47.9004 51.4648 47.8564 51.6211 47.7686C51.7773 47.6807 51.9336 47.5879 52.0898 47.4902C52.2852 47.373 52.5244 47.2119 52.8076 47.0068C53.0908 46.8018 53.4766 46.5234 53.9648 46.1719L53.9941 46.1426C54.8145 45.4004 55.5664 44.5947 56.25 43.7256C56.9336 42.8564 57.5391 41.9434 58.0664 40.9863C58.4961 40.2051 58.8721 39.3896 59.1943 38.54C59.5166 37.6904 59.7852 36.8164 60 35.918C60.3516 34.4727 60.542 33.2178 60.5713 32.1533C60.6006 31.0889 60.6055 30.4004 60.5859 30.0879ZM58.9453 35.6543C58.7305 36.6309 58.4375 37.5586 58.0664 38.4375C57.7148 39.3164 57.3047 40.1611 56.8359 40.9717C56.3672 41.7822 55.8398 42.5488 55.2539 43.2715C54.6484 43.9941 53.9941 44.6777 53.291 45.3223C53.1738 45.4004 53.0273 45.5029 52.8516 45.6299C52.6758 45.7568 52.4902 45.8887 52.2949 46.0254C52.5684 45.5566 52.8906 44.9805 53.2617 44.2969C53.6328 43.6328 53.999 42.8906 54.3604 42.0703C54.7217 41.25 55.0586 40.3613 55.3711 39.4043C55.7031 38.4473 55.957 37.4414 56.1328 36.3867L56.3086 35.4785L55.4297 35.7715C55.1172 35.8691 54.7949 35.9473 54.4629 36.0059C54.1309 36.0645 53.7988 36.0938 53.4668 36.0938C52.6465 36.0938 51.875 35.9375 51.1523 35.625C50.4102 35.3125 49.7656 34.8828 49.2188 34.3359C48.6719 33.7891 48.2422 33.1445 47.9297 32.4023C47.6172 31.6797 47.4609 30.8984 47.4609 30.0586C47.4609 29.2383 47.6172 28.457 47.9297 27.7148C48.2422 26.9922 48.6719 26.3574 49.2188 25.8105C49.7656 25.2637 50.4004 24.834 51.123 24.5215C51.8652 24.209 52.6465 24.0527 53.4668 24.0527C54.3066 24.0527 55.0879 24.209 55.8105 24.5215C56.5527 24.834 57.1973 25.2637 57.7441 25.8105C58.291 26.3574 58.7207 26.9922 59.0332 27.7148C59.3457 28.457 59.502 29.2383 59.502 30.0586V30.1172C59.502 30.1172 59.502 30.1221 59.502 30.1318C59.502 30.1416 59.502 30.1465 59.502 30.1465C59.5215 30.4395 59.5166 31.0889 59.4873 32.0947C59.458 33.1006 59.2773 34.2871 58.9453 35.6543Z" fill="white"/>
</g>
<defs>
<clipPath id="clip0_2205_2173">
<rect width="30" height="30" fill="white" transform="matrix(1 0 0 -1 30.6152 50.0098)"/>
</clipPath>
</defs>
</svg>
