<svg width="24" height="24" viewBox="0 0 24 24" fill="none" xmlns="http://www.w3.org/2000/svg">
<path fill-rule="evenodd" clip-rule="evenodd" d="M6.54545 2.18182C4.13548 2.18182 2.18182 4.13548 2.18182 6.54545V17.4545C2.18182 19.8645 4.13548 21.8182 6.54545 21.8182H17.4545C19.8645 21.8182 21.8182 19.8645 21.8182 17.4545V6.54545C21.8182 4.13548 19.8645 2.18182 17.4545 2.18182H6.54545ZM0 6.54545C0 2.9305 2.9305 0 6.54545 0H17.4545C21.0695 0 24 2.9305 24 6.54545V17.4545C24 21.0695 21.0695 24 17.4545 24H6.54545C2.9305 24 0 21.0695 0 17.4545V6.54545Z" fill="#1D1C20"/>
<path fill-rule="evenodd" clip-rule="evenodd" d="M12.5273 8.71547C11.8463 8.6145 11.1509 8.73081 10.5399 9.04785C9.92886 9.3649 9.43337 9.86654 9.12389 10.4814C8.8144 11.0963 8.70668 11.7931 8.81604 12.4727C8.9254 13.1524 9.24628 13.7802 9.73303 14.267C10.2198 14.7537 10.8476 15.0746 11.5273 15.184C12.2069 15.2933 12.9037 15.1856 13.5186 14.8761C14.1335 14.5666 14.6351 14.0711 14.9521 13.4601C15.2692 12.8491 15.3855 12.1537 15.2845 11.4727C15.1815 10.7782 14.8579 10.1351 14.3614 9.63863C13.8649 9.14213 13.2218 8.81847 12.5273 8.71547ZM9.535 7.11122C10.5534 6.58281 11.7124 6.38897 12.8473 6.55725C14.0049 6.72892 15.0766 7.26834 15.9041 8.09585C16.7317 8.92337 17.2711 9.99509 17.4427 11.1527C17.611 12.2876 17.4172 13.4466 16.8888 14.465C16.3604 15.4834 15.5243 16.3092 14.4995 16.825C13.4747 17.3408 12.3134 17.5203 11.1806 17.3381C10.0479 17.1558 9.00151 16.621 8.19025 15.8097C7.379 14.9985 6.8442 13.9521 6.66193 12.8194C6.47966 11.6866 6.6592 10.5253 7.17501 9.50049C7.69082 8.47569 8.51664 7.63963 9.535 7.11122Z" fill="#1D1C20"/>
<path fill-rule="evenodd" clip-rule="evenodd" d="M16.9091 6C16.9091 5.39751 17.3975 4.90909 18 4.90909H18.0109C18.6134 4.90909 19.1018 5.39751 19.1018 6C19.1018 6.60249 18.6134 7.09091 18.0109 7.09091H18C17.3975 7.09091 16.9091 6.60249 16.9091 6Z"/>
</svg>
