<svg width="30" height="30" viewBox="0 0 30 30" fill="none" xmlns="http://www.w3.org/2000/svg">
<path d="M14.3555 10.0488C14.3555 9.07227 14.1699 8.1543 13.7988 7.29492C13.4082 6.43555 12.8955 5.68359 12.2607 5.03906C11.626 4.39453 10.8691 3.88672 9.99023 3.51562C9.13086 3.125 8.21289 2.92969 7.23633 2.92969C6.25977 2.92969 5.3418 3.125 4.48242 3.51562C3.60352 3.88672 2.8418 4.39453 2.19727 5.03906C1.55273 5.68359 1.04492 6.43555 0.673828 7.29492C0.302734 8.1543 0.117188 9.07227 0.117188 10.0488C0.117188 11.0449 0.302734 11.9727 0.673828 12.832C1.04492 13.6914 1.55273 14.4434 2.19727 15.0879C2.8418 15.7324 3.59375 16.2402 4.45312 16.6113C5.33203 16.9824 6.25977 17.168 7.23633 17.168C7.4707 17.168 7.70508 17.1582 7.93945 17.1387C8.17383 17.1191 8.41797 17.0801 8.67188 17.0215C8.45703 17.959 8.19336 18.8477 7.88086 19.6875C7.58789 20.5273 7.27539 21.3086 6.94336 22.0312C6.61133 22.7539 6.2793 23.418 5.94727 24.0234C5.61523 24.6094 5.33203 25.1172 5.09766 25.5469C4.96094 25.7617 4.84375 25.9619 4.74609 26.1475C4.64844 26.333 4.56055 26.4941 4.48242 26.6309C4.42383 26.748 4.36523 26.9189 4.30664 27.1436C4.24805 27.3682 4.31641 27.5586 4.51172 27.7148C4.57031 27.7734 4.63379 27.8174 4.70215 27.8467C4.77051 27.876 4.84375 27.8906 4.92188 27.8906C5.05859 27.8906 5.20996 27.8467 5.37598 27.7588C5.54199 27.6709 5.69336 27.5781 5.83008 27.4805C6.02539 27.3633 6.26953 27.2021 6.5625 26.9971C6.85547 26.792 7.23633 26.5137 7.70508 26.1621L7.73438 26.1328C8.57422 25.3906 9.33594 24.585 10.0195 23.7158C10.7031 22.8467 11.3086 21.9336 11.8359 20.9766C12.2656 20.1953 12.6416 19.3799 12.9639 18.5303C13.2861 17.6807 13.5547 16.8066 13.7695 15.9082C14.1211 14.4629 14.3115 13.208 14.3408 12.1436C14.3701 11.0791 14.375 10.3809 14.3555 10.0488ZM12.7148 15.6445C12.4805 16.6016 12.1875 17.5293 11.8359 18.4277C11.4844 19.3066 11.0742 20.1514 10.6055 20.9619C10.1367 21.7725 9.59961 22.5391 8.99414 23.2617C8.4082 23.9844 7.76367 24.6582 7.06055 25.2832C6.94336 25.3809 6.79688 25.4932 6.62109 25.6201C6.44531 25.7471 6.25977 25.8789 6.06445 26.0156C6.33789 25.5273 6.66016 24.9512 7.03125 24.2871C7.38281 23.623 7.74414 22.8809 8.11523 22.0605C8.48633 21.2402 8.82812 20.3516 9.14062 19.3945C9.47266 18.4375 9.72656 17.4219 9.90234 16.3477L10.0488 15.4395L9.19922 15.7617C8.86719 15.8594 8.54004 15.9375 8.21777 15.9961C7.89551 16.0547 7.56836 16.084 7.23633 16.084C6.41602 16.084 5.63477 15.9277 4.89258 15.6152C4.16992 15.3027 3.53516 14.873 2.98828 14.3262C2.44141 13.7793 2.01172 13.1348 1.69922 12.3926C1.38672 11.6699 1.23047 10.8887 1.23047 10.0488C1.23047 9.22852 1.38672 8.44727 1.69922 7.70508C2.01172 6.98242 2.44141 6.34766 2.98828 5.80078C3.53516 5.25391 4.16992 4.82422 4.89258 4.51172C5.61523 4.19922 6.39648 4.04297 7.23633 4.04297C8.05664 4.04297 8.83789 4.19922 9.58008 4.51172C10.3027 4.82422 10.9375 5.25391 11.4844 5.80078C12.0312 6.34766 12.4609 6.98242 12.7734 7.70508C13.1055 8.42773 13.2715 9.20898 13.2715 10.0488V10.0781C13.2715 10.0977 13.2715 10.1074 13.2715 10.1074C13.2715 10.1074 13.2715 10.1172 13.2715 10.1367C13.291 10.4297 13.2861 11.0791 13.2568 12.085C13.2275 13.0908 13.0469 14.2773 12.7148 15.6445ZM29.9707 10.0781C29.9707 9.08203 29.7852 8.1543 29.4141 7.29492C29.043 6.43555 28.5352 5.68359 27.8906 5.03906C27.2461 4.39453 26.4941 3.88672 25.6348 3.51562C24.7559 3.14453 23.8281 2.95898 22.8516 2.95898C21.875 2.95898 20.957 3.14453 20.0977 3.51562C19.2383 3.88672 18.4863 4.39453 17.8418 5.03906C17.1973 5.68359 16.6895 6.43555 16.3184 7.29492C15.9473 8.1543 15.7617 9.07227 15.7617 10.0488C15.7617 11.0449 15.9473 11.9727 16.3184 12.832C16.6895 13.6914 17.1973 14.4434 17.8418 15.0879C18.4863 15.7324 19.2383 16.2402 20.0977 16.6113C20.957 16.9824 21.875 17.168 22.8516 17.168C23.0859 17.168 23.3252 17.1582 23.5693 17.1387C23.8135 17.1191 24.0527 17.0801 24.2871 17.0215C24.0723 17.959 23.8184 18.8477 23.5254 19.6875C23.2129 20.5273 22.8906 21.3086 22.5586 22.0312C22.2266 22.7539 21.8945 23.4082 21.5625 23.9941C21.25 24.5996 20.9668 25.1172 20.7129 25.5469C20.5762 25.7617 20.459 25.957 20.3613 26.1328C20.2637 26.3086 20.1855 26.4648 20.127 26.6016C20.0684 26.7383 20.0049 26.9189 19.9365 27.1436C19.8682 27.3682 19.9316 27.5586 20.127 27.7148C20.1855 27.7734 20.249 27.8174 20.3174 27.8467C20.3857 27.876 20.459 27.8906 20.5371 27.8906C20.6934 27.8906 20.8496 27.8467 21.0059 27.7588C21.1621 27.6709 21.3184 27.5781 21.4746 27.4805C21.6699 27.3633 21.9092 27.2021 22.1924 26.9971C22.4756 26.792 22.8613 26.5137 23.3496 26.1621L23.3789 26.1328C24.1992 25.3906 24.9512 24.585 25.6348 23.7158C26.3184 22.8467 26.9238 21.9336 27.4512 20.9766C27.8809 20.1953 28.2568 19.3799 28.5791 18.5303C28.9014 17.6807 29.1699 16.8066 29.3848 15.9082C29.7363 14.4629 29.9268 13.208 29.9561 12.1436C29.9854 11.0791 29.9902 10.3906 29.9707 10.0781ZM28.3301 15.6445C28.1152 16.6211 27.8223 17.5488 27.4512 18.4277C27.0996 19.3066 26.6895 20.1514 26.2207 20.9619C25.752 21.7725 25.2246 22.5391 24.6387 23.2617C24.0332 23.9844 23.3789 24.668 22.6758 25.3125C22.5586 25.3906 22.4121 25.4932 22.2363 25.6201C22.0605 25.7471 21.875 25.8789 21.6797 26.0156C21.9531 25.5469 22.2754 24.9707 22.6465 24.2871C23.0176 23.623 23.3838 22.8809 23.7451 22.0605C24.1064 21.2402 24.4434 20.3516 24.7559 19.3945C25.0879 18.4375 25.3418 17.4316 25.5176 16.377L25.6934 15.4688L24.8145 15.7617C24.502 15.8594 24.1797 15.9375 23.8477 15.9961C23.5156 16.0547 23.1836 16.084 22.8516 16.084C22.0312 16.084 21.2598 15.9277 20.5371 15.6152C19.7949 15.3027 19.1504 14.873 18.6035 14.3262C18.0566 13.7793 17.627 13.1348 17.3145 12.3926C17.002 11.6699 16.8457 10.8887 16.8457 10.0488C16.8457 9.22852 17.002 8.44727 17.3145 7.70508C17.627 6.98242 18.0566 6.34766 18.6035 5.80078C19.1504 5.25391 19.7852 4.82422 20.5078 4.51172C21.25 4.19922 22.0312 4.04297 22.8516 4.04297C23.6914 4.04297 24.4727 4.19922 25.1953 4.51172C25.9375 4.82422 26.582 5.25391 27.1289 5.80078C27.6758 6.34766 28.1055 6.98242 28.418 7.70508C28.7305 8.44727 28.8867 9.22852 28.8867 10.0488V10.1074C28.8867 10.1074 28.8867 10.1123 28.8867 10.1221C28.8867 10.1318 28.8867 10.1367 28.8867 10.1367C28.9062 10.4297 28.9014 11.0791 28.8721 12.085C28.8428 13.0908 28.6621 14.2773 28.3301 15.6445Z" fill="#B4AC9D"/>
</svg>
