<svg width="24" height="24" viewBox="0 0 24 24"  xmlns="http://www.w3.org/2000/svg">
<path fill="currentColor" fill-rule="evenodd" clip-rule="evenodd" d="M9.75736 1.91712C10.8826 0.689608 12.4087 0 14 0H17C17.5523 0 18 0.488417 18 1.09091V5.45455C18 6.05704 17.5523 6.54545 17 6.54545H14V8.72727H17C17.3079 8.72727 17.5987 8.88204 17.7882 9.14682C17.9777 9.4116 18.0448 9.75687 17.9701 10.0828L16.9701 14.4464C16.8588 14.932 16.4589 15.2727 16 15.2727H14V22.9091C14 23.5116 13.5523 24 13 24H9C8.44771 24 8 23.5116 8 22.9091V15.2727H6C5.44771 15.2727 5 14.7843 5 14.1818V9.81818C5 9.21569 5.44771 8.72727 6 8.72727H8V6.54545C8 4.80949 8.63214 3.14463 9.75736 1.91712ZM14 2.18182C12.9391 2.18182 11.9217 2.64156 11.1716 3.4599C10.4214 4.27824 10 5.38815 10 6.54545V9.81818C10 10.4207 9.55228 10.9091 9 10.9091H7V13.0909H9C9.55228 13.0909 10 13.5793 10 14.1818V21.8182H12V14.1818C12 13.5793 12.4477 13.0909 13 13.0909H15.2192L15.7192 10.9091H13C12.4477 10.9091 12 10.4207 12 9.81818V6.54545C12 5.9668 12.2107 5.41185 12.5858 5.00268C12.9609 4.59351 13.4696 4.36364 14 4.36364H16V2.18182H14Z"/>
</svg>
