<svg width="20" height="16" viewBox="0 0 20 16" fill="none" xmlns="http://www.w3.org/2000/svg">
<path d="M11.7519 6.2168C12.2137 6.6704 12.5001 7.30196 12.5001 8.00042C12.5001 9.38113 11.3808 10.5004 10.0001 10.5004C9.32578 10.5004 8.71383 10.2335 8.26416 9.79946" stroke="#2B2A29" stroke-linejoin="round"/>
<path d="M17 1L3 15" stroke="#2B2A29" stroke-linejoin="round"/>
<path d="M12.5 2.5C12 2 11 2 10 2C6.13401 2 1 8 1 8C1 8 1 8 4 10.5918M5.72031 12C7.11754 13.0214 8.63752 14 10 14C13.866 14 19 8 19 8C19 8 16.7369 5.2588 14.0844 3.5" stroke="#2B2A29" stroke-linejoin="round"/>
</svg>
