<svg width="24" height="24" viewBox="0 0 24 24" fill="none" xmlns="http://www.w3.org/2000/svg">
<path d="M13.7514 10.2168C14.2132 10.6704 14.4996 11.302 14.4996 12.0004C14.4996 13.3811 13.3803 14.5004 11.9996 14.5004C11.3253 14.5004 10.7133 14.2335 10.2637 13.7995" stroke="#2B2A29" stroke-linejoin="round"/>
<path d="M19 5L5 19" stroke="#2B2A29" stroke-linejoin="round"/>
<path d="M14.5 6.5C14 6 13 6 12 6C8.13401 6 3 12 3 12C3 12 3 12 6 14.5918M7.72031 16C9.11754 17.0214 10.6375 18 12 18C15.866 18 21 12 21 12C21 12 18.7369 9.2588 16.0844 7.5" stroke="#2B2A29" stroke-linejoin="round"/>
</svg>
