<svg width="24" height="24" viewBox="0 0 24 24" xmlns="http://www.w3.org/2000/svg">
<path d="M6.56601 0.00014692H3.28583C2.82927 0.000843982 2.37785 0.0961963 1.96028 0.280318C1.54257 0.46449 1.16783 0.733499 0.859956 1.07019C0.55211 1.40681 0.317832 1.80379 0.172063 2.23582C0.0263017 2.66786 -0.0277501 3.12542 0.013349 3.57941C0.393123 7.15057 1.60455 10.5658 3.55119 13.5654C5.31575 16.3374 7.67697 18.6945 10.462 20.4612C13.4448 22.3921 16.8495 23.6012 20.3939 23.9857C20.8701 24.0287 21.3298 23.9743 21.7635 23.8279C22.1974 23.6815 22.596 23.446 22.9335 23.1368C23.271 22.8279 23.5402 22.4516 23.7236 22.0326C23.9071 21.6138 24.001 21.1611 23.999 20.7038L23.999 17.425C24.0187 16.6471 23.7416 15.8627 23.2201 15.2481C22.6983 14.6335 21.9687 14.2318 21.1698 14.1194C20.1897 13.9903 19.2365 13.7533 18.319 13.4115C17.7329 13.1915 17.093 13.1437 16.4779 13.2748L16.2499 13.3319C15.7238 13.4838 15.2425 13.765 14.8512 14.1513L14.0619 14.9382L13.9306 14.8568C12.0077 13.6077 10.3677 11.9705 9.1164 10.0511L9.03358 9.91981L9.81888 9.13638C10.2654 8.68567 10.5701 8.1221 10.7013 7.50814C10.8325 6.89416 10.7846 6.25552 10.5633 5.66788C10.2219 4.7547 9.98453 3.8033 9.8565 2.8343C9.74341 2.03529 9.34812 1.3138 8.74293 0.794255C8.13783 0.274771 7.36413 -0.0073832 6.56601 0.00014692ZM3.28869 2.18922H6.57659C6.85335 2.18666 7.11134 2.28075 7.31308 2.45394C7.51482 2.62713 7.64658 2.86762 7.68382 3.1306C7.8321 4.25321 8.10962 5.36532 8.50973 6.43565C8.58442 6.63401 8.60038 6.84688 8.55666 7.05153C8.51293 7.25619 8.41135 7.44405 8.26396 7.59283L6.8758 8.97851C6.52678 9.32691 6.45399 9.86516 6.69797 10.2935C8.35635 13.2048 10.7712 15.6155 13.6877 17.271C14.1168 17.5146 14.656 17.4419 15.005 17.0935L16.3975 15.7035C16.5422 15.5606 16.7304 15.4592 16.9353 15.4156C17.1405 15.3719 17.3537 15.3879 17.5497 15.4615C18.6249 15.8619 19.739 16.1389 20.8733 16.2883C21.1299 16.3244 21.3731 16.4583 21.547 16.6633C21.7208 16.868 21.8132 17.1295 21.8065 17.3978L21.8061 20.7086C21.8068 20.8654 21.7755 21.0161 21.7143 21.1558C21.6532 21.2956 21.5635 21.4209 21.4511 21.5238C21.3384 21.627 21.2056 21.7055 21.0611 21.7542C20.9165 21.803 20.7631 21.8212 20.6107 21.8075C17.4274 21.462 14.3502 20.3692 11.6466 18.6191C9.12479 17.0193 6.99391 14.8922 5.39682 12.3833C3.63227 9.66417 2.53737 6.57751 2.19565 3.36532C2.18363 3.23107 2.20165 3.07855 2.25024 2.93451C2.29883 2.79053 2.37691 2.65821 2.47952 2.54601C2.58217 2.43376 2.70708 2.34409 2.8463 2.28271C2.98558 2.22129 3.13623 2.18947 3.28869 2.18922Z"/>
</svg>
