<svg width="150" height="24" viewBox="0 0 150 24" fill="none" xmlns="http://www.w3.org/2000/svg">
<g clip-path="url(#clip0_2206_2364)">
<g clip-path="url(#clip1_2206_2364)">
<g clip-path="url(#clip2_2206_2364)">
<mask id="mask0_2206_2364" style="mask-type:luminance" maskUnits="userSpaceOnUse" x="0" y="0" width="150" height="24">
<path d="M150 24V0L0 0V24L150 24Z" fill="white"/>
</mask>
<g mask="url(#mask0_2206_2364)">
<path d="M-3.0525e-05 10.0432C1.38954 8.98231 2.85223 8.01572 4.36369 7.11985L5.63136 9.14734C4.19304 9.99607 2.80348 10.9155 1.51143 11.9057L-0.0244141 10.0432H-3.0525e-05ZM9.53191 4.52653C11.2627 3.79568 13.0911 3.13556 14.9682 2.56975L15.6996 4.83301C13.92 5.37525 12.1891 5.98821 10.5314 6.69549L9.53191 4.52653ZM20.5753 1.20236C22.428 0.848723 24.3295 0.565815 26.2798 0.37721L26.548 2.73478C24.6708 2.92338 22.8181 3.20628 21.0628 3.53635L20.5753 1.20236ZM32.0331 0C32.6426 2.664e-08 33.252 5.328e-08 33.8858 8.098e-08C35.1779 1.3746e-07 36.4943 0.0235759 37.7864 0.0943028L37.6645 2.47545C36.3968 2.4283 35.1291 2.38115 33.8858 2.38115C33.3008 2.38115 32.6913 2.38115 32.1062 2.38113L32.0575 1.06002e-09L32.0331 0ZM43.2228 2.89981L43.4909 0.54224C45.3681 0.754421 47.2696 1.01376 49.1711 1.34382L48.7566 3.70138C46.9039 3.3949 45.0511 3.13556 43.2228 2.92338V2.89981ZM54.2661 4.76229L54.8025 2.42829C56.6552 2.82907 58.508 3.27701 60.3364 3.74852L59.7025 6.05895C57.8985 5.61101 56.0701 5.16307 54.2418 4.76229H54.2661ZM65.1389 7.49706L65.8215 5.21022C67.6499 5.72889 69.4539 6.24755 71.2579 6.78979L70.5265 9.07662C68.7225 8.53438 66.9185 8.01573 65.1145 7.52064L65.1389 7.49706ZM75.9385 10.7033L76.6698 8.44008L82.0818 10.0668L81.3505 12.3301L75.9385 10.7033ZM86.7869 13.9332L87.4695 11.6464C89.2735 12.165 91.0775 12.6601 92.8815 13.1316L92.2476 15.442C90.4192 14.9705 88.5909 14.4519 86.7625 13.9332H86.7869ZM97.8059 16.7623L98.3666 14.4519C99.0004 14.5933 99.6099 14.7348 100.243 14.8762C101.438 15.1356 102.632 15.3713 103.851 15.5835L103.412 17.9175C102.169 17.7053 100.95 17.4696 99.7318 17.2102C99.0979 17.0688 98.4641 16.9273 97.8059 16.7859V16.7623ZM109.068 18.7662L109.385 16.4086C111.262 16.6444 113.115 16.8094 114.943 16.9273L114.773 19.3085C112.896 19.1906 110.97 19.002 109.068 18.7662ZM120.502 17.0923C122.403 17.0923 124.256 16.998 126.06 16.8566L126.255 19.2377C124.402 19.3792 122.452 19.4735 120.502 19.4735V17.0923ZM131.569 16.1729C133.422 15.8428 135.251 15.442 136.957 14.9705L137.64 17.2574C135.836 17.7525 133.934 18.1768 132.008 18.5069L131.569 16.1729ZM142.174 13.2259C143.881 12.5422 145.563 11.7407 147.123 10.8919L148.342 12.9666C146.684 13.8861 144.929 14.7112 143.125 15.442L142.174 13.2495V13.2259Z" fill="#8F95B2"/>
<path d="M135.812 6.57715L135.105 8.86399L146.758 12.1646L142.516 23.1508L144.832 23.9996L150 10.585L135.812 6.57715Z" fill="#8F95B2"/>
</g>
</g>
</g>
</g>
<defs>
<clipPath id="clip0_2206_2364">
<rect width="150" height="24" rx="12" fill="white"/>
</clipPath>
<clipPath id="clip1_2206_2364">
<rect width="150" height="24" fill="white"/>
</clipPath>
<clipPath id="clip2_2206_2364">
<rect width="150" height="24" fill="white"/>
</clipPath>
</defs>
</svg>
