<svg width="24" height="24" viewBox="0 0 24 24" fill="none" xmlns="http://www.w3.org/2000/svg">
<path fill-rule="evenodd" clip-rule="evenodd" d="M23.9933 1.21179C23.9843 1.2924 23.9662 1.37274 23.9387 1.45132L23.9308 1.47405C23.8778 1.61565 23.7943 1.74844 23.6805 1.86233L20.3002 5.24259L21.1309 2.86909L18.7574 3.69981L22.1377 0.31955C22.2515 0.205682 22.3843 0.122248 22.5259 0.0692492L22.5487 0.0612758C22.6278 0.0335864 22.7087 0.0154508 22.7898 0.00652575C22.8553 -0.000633857 22.9214 -0.00187461 22.987 0.00280339C23.2441 0.0212669 23.4915 0.130557 23.6805 0.31955C23.8698 0.508905 23.9792 0.756877 23.9973 1.01444L23.9975 1.01732C23.9982 1.02729 23.9987 1.03726 23.9991 1.04724C24.0009 1.09215 23.9999 1.13714 23.9962 1.18195M23.6805 0.31955C23.4873 0.126381 23.2397 0.0207991 22.987 0.00280339C22.9214 -0.00187461 22.8553 -0.000633857 22.7898 0.00652575C22.7001 0.0163314 22.6114 0.0372392 22.5259 0.0692492L0.730531 7.69763C0.30835 7.84539 0.0191455 8.2359 0.000912309 8.68282C-0.0173209 9.12974 0.239112 9.54251 0.647854 9.72417L10.0826 13.9174L14.2758 23.3521C14.4575 23.7609 14.8703 24.0173 15.3172 23.9991C15.7641 23.9809 16.1546 23.6917 16.3024 23.2695L23.9308 1.47405C23.9626 1.38907 23.9834 1.30092 23.9933 1.21179M18.7574 3.69981L10.6675 11.7897L4.04844 8.84795L18.7574 3.69981ZM20.3002 5.24259L15.1521 19.9516L12.2103 13.3325L20.3002 5.24259Z" fill="#1D1C20"/>
<path d="M23.9387 1.45132C23.9662 1.37274 23.9843 1.2924 23.9933 1.21179C23.9944 1.20185 23.9954 1.1919 23.9962 1.18195C23.9999 1.13714 24.0009 1.09215 23.9991 1.04724C23.9987 1.03726 23.9982 1.02729 23.9975 1.01732L23.9973 1.01444C23.9792 0.756877 23.8698 0.508905 23.6805 0.31955C23.4915 0.130557 23.2441 0.0212669 22.987 0.00280339C22.9214 -0.00187461 22.8553 -0.000633857 22.7898 0.00652575C22.7087 0.0154508 22.6278 0.0335864 22.5487 0.0612758L22.5259 0.0692492C22.3843 0.122248 22.2515 0.205682 22.1377 0.31955L18.7574 3.69981L21.1309 2.86909L20.3002 5.24259L23.6805 1.86233C23.7943 1.74844 23.8778 1.61565 23.9308 1.47405L23.9387 1.45132Z"/>
</svg>
