<svg width="24" height="24" viewBox="0 0 24 24" fill="none" xmlns="http://www.w3.org/2000/svg">
<path d="M9 16L12 19L15 16" stroke="#2B2A29" stroke-linejoin="round"/>
<path d="M7 16H5.125C3.39911 16 2 14.5449 2 12.75C2 10.9551 3.39911 9.5 5.125 9.5H5.13308C5.12772 9.39237 5.125 9.28402 5.125 9.175C5.125 5.76464 7.78331 3 11.0625 3C13.3643 3 15.3602 4.36225 16.3455 6.35385C16.6576 6.28579 16.981 6.25 17.3125 6.25C19.9013 6.25 22 8.43261 22 11.125C22 13.2184 20.7312 15.0037 18.9497 15.6944C18.5475 15.8904 18.0986 16 17.625 16H17" stroke="#2B2A29" stroke-linejoin="round"/>
<path d="M12 19V11" stroke="#2B2A29" stroke-linejoin="round"/>
</svg>
