<svg width="152" height="36" viewBox="0 0 152 36" fill="none" xmlns="http://www.w3.org/2000/svg">
<path d="M18.5677 10.5979V17.805V21.7631L18.5815 21.7723V25.5199L16.5185 26.6959L16.5277 26.7051L13.6431 28.3524L12.0092 29.2859H12L8.71845 27.4098H8.70923L5.4323 25.5291V21.7723L5.42308 21.7631V18.0154L8.71845 16.1302V16.121L12 14.2403L15.2862 16.1302H15.2954L17.0723 17.1414V10.9274L12 8.02623L6.00461 11.4673L5.99538 11.4582L0.0138456 14.8855V21.7631H0V27.0803V28.6316L6.58153 32.3975L12 35.5L17.9954 32.0726L18.0046 32.0818L24 28.6499V21.7723V7.50915L23.9908 7.5L18.5677 10.5979Z" fill="#2B2A29"/>
<path d="M23.6305 0.5L18.2891 3.71853V8.90236L23.6305 5.68383L23.6396 5.69332V0.509494L23.6305 0.5Z" fill="#2B2A29"/>
<path d="M37.54 10.5H40.94V25.5H37.54V10.5ZM57.9048 23.26L56.7248 23.44V10.5H60.0248V25.5H55.7248L46.1248 12.56L47.2848 12.38V25.5H44.0048V10.5H48.4048L57.9048 23.26ZM67.8669 12.02H71.2469V25.5H67.8669V12.02ZM61.8869 10.5H77.2069V13.5H61.8869V10.5ZM91.5025 16.7V19.3H80.7625V16.7H91.5025ZM83.0425 18L82.0425 24.36L80.5625 22.68H92.1225V25.5H78.6225L79.7825 18L78.6225 10.5H92.0225V13.32H80.5625L82.0425 11.64L83.0425 18ZM97.068 17.16H102.848C103.608 17.16 104.208 16.9867 104.648 16.64C105.101 16.28 105.328 15.7867 105.328 15.16C105.328 14.5333 105.101 14.0467 104.648 13.7C104.208 13.3533 103.608 13.18 102.848 13.18H96.568L98.108 11.44V25.5H94.708V10.5H103.248C104.341 10.5 105.301 10.7 106.128 11.1C106.955 11.4867 107.601 12.0267 108.068 12.72C108.535 13.4133 108.768 14.2267 108.768 15.16C108.768 16.08 108.535 16.8867 108.068 17.58C107.601 18.2733 106.955 18.82 106.128 19.22C105.301 19.6067 104.341 19.8 103.248 19.8H97.068V17.16ZM99.668 18.48H103.548L109.208 25.5H105.228L99.668 18.48ZM111.31 10.5H114.71V25.5H111.31V10.5ZM125.794 25.8C124.048 25.8 122.514 25.4733 121.194 24.82C119.888 24.1667 118.868 23.26 118.134 22.1C117.401 20.9267 117.034 19.56 117.034 18C117.034 16.44 117.401 15.08 118.134 13.92C118.868 12.7467 119.888 11.8333 121.194 11.18C122.514 10.5267 124.048 10.2 125.794 10.2C127.541 10.2 129.068 10.5267 130.374 11.18C131.694 11.8333 132.721 12.7467 133.454 13.92C134.188 15.08 134.554 16.44 134.554 18C134.554 19.56 134.188 20.9267 133.454 22.1C132.721 23.26 131.694 24.1667 130.374 24.82C129.068 25.4733 127.541 25.8 125.794 25.8ZM125.794 22.78C126.888 22.78 127.828 22.5867 128.614 22.2C129.414 21.8133 130.028 21.26 130.454 20.54C130.894 19.82 131.114 18.9733 131.114 18C131.114 17.0267 130.894 16.18 130.454 15.46C130.028 14.74 129.414 14.1867 128.614 13.8C127.828 13.4133 126.888 13.22 125.794 13.22C124.714 13.22 123.774 13.4133 122.974 13.8C122.174 14.1867 121.554 14.74 121.114 15.46C120.688 16.18 120.474 17.0267 120.474 18C120.474 18.9733 120.688 19.82 121.114 20.54C121.554 21.26 122.174 21.8133 122.974 22.2C123.774 22.5867 124.714 22.78 125.794 22.78ZM139.255 17.16H145.035C145.795 17.16 146.395 16.9867 146.835 16.64C147.289 16.28 147.515 15.7867 147.515 15.16C147.515 14.5333 147.289 14.0467 146.835 13.7C146.395 13.3533 145.795 13.18 145.035 13.18H138.755L140.295 11.44V25.5H136.895V10.5H145.435C146.529 10.5 147.489 10.7 148.315 11.1C149.142 11.4867 149.789 12.0267 150.255 12.72C150.722 13.4133 150.955 14.2267 150.955 15.16C150.955 16.08 150.722 16.8867 150.255 17.58C149.789 18.2733 149.142 18.82 148.315 19.22C147.489 19.6067 146.529 19.8 145.435 19.8H139.255V17.16ZM141.855 18.48H145.735L151.395 25.5H147.415L141.855 18.48Z" fill="#2B2A29"/>
</svg>
