<svg width="342" height="41" viewBox="0 0 342 41" fill="none" xmlns="http://www.w3.org/2000/svg">
<path d="M20.828 11.5781V20.0932V24.7698L20.8435 24.7806V29.2084L18.5293 30.5979L18.5397 30.6087L15.3039 32.555L13.4712 33.6579H13.4608L9.77979 31.4413H9.76944L6.0936 29.2192V24.7806L6.08325 24.7698V20.3419L9.77979 18.1145V18.1037L13.4608 15.8816L17.147 18.1145H17.1573L19.1506 19.3093V11.9674L13.4608 8.53971L6.73557 12.6053L6.72522 12.5945L0.0155311 16.6439V24.7698H0V31.052V32.8848L7.38272 37.3343L13.4608 40.9998L20.186 36.9504L20.1964 36.9612L26.9216 32.9064V24.7806V7.92878L26.9112 7.91797L20.828 11.5781Z" fill="#FEFDFC"/>
<path d="M26.9114 0L20.8281 3.66555V9.56935L26.9114 5.9038L26.9217 5.91462V0.0108128L26.9114 0Z" fill="#FEFDFC"/>
<path d="M40.8281 27.2719V12.6157H43.1085V27.2719H40.8281Z" fill="#FEFDFC"/>
<path d="M65.1201 27.6218H64.8339L49.1146 16.3994V27.2715H46.8555V12.2681H47.1417L62.8397 23.5116V12.6154H65.1201V27.6188V27.6218Z" fill="#FEFDFC"/>
<path d="M78.1587 14.5727V27.2719H75.8996V14.5727H67.3047V12.6157H86.7293V14.5727H78.1587Z" fill="#FEFDFC"/>
<path d="M88.9453 27.2719V12.6157H105.036V14.5727H91.2014V18.2058H105.036V20.1205H91.2014V25.3179H105.036V27.2749H88.9453V27.2719Z" fill="#FEFDFC"/>
<path d="M122.378 27.2719L116.438 21.0536H110.65V27.2719H108.391V12.6157H120.91C123.452 12.6157 125.602 13.9868 125.602 16.726C125.602 19.4651 123.498 21.0114 120.931 21.0114H119.287L125.425 27.2749H122.378V27.2719ZM120.426 14.5516H110.65V19.2054H120.624C121.872 19.2054 123.364 18.6407 123.364 16.7713C123.364 15.2915 122.091 14.5546 120.426 14.5546V14.5516Z" fill="#FEFDFC"/>
<path d="M128.801 27.2719V12.6157H131.081V27.2719H128.801Z" fill="#FEFDFC"/>
<path d="M143.796 27.6644C138.708 27.6644 133.91 25.4235 133.91 19.9452C133.91 14.4669 138.69 12.2261 143.796 12.2261C148.902 12.2261 153.661 14.4881 153.661 19.9452C153.661 25.4024 148.902 27.6644 143.796 27.6644ZM143.796 14.0743C139.543 14.0743 136.297 16.0313 136.297 19.9452C136.297 23.8592 139.543 25.8161 143.796 25.8161C148.049 25.8161 151.249 23.9015 151.249 19.9452C151.249 15.989 148.028 14.0743 143.796 14.0743Z" fill="#FEFDFC"/>
<path d="M170.405 27.2719L164.465 21.0536H158.677V27.2719H156.418V12.6157H168.937C171.48 12.6157 173.629 13.9868 173.629 16.726C173.629 19.4651 171.525 21.0114 168.959 21.0114H167.315L173.453 27.2749H170.405V27.2719ZM168.453 14.5516H158.677V19.2054H168.651C169.9 19.2054 171.391 18.6407 171.391 16.7713C171.391 15.2915 170.119 14.5546 168.453 14.5546V14.5516Z" fill="#FEFDFC"/>
</svg>
