<svg width="175" height="42" viewBox="0 0 175 42" fill="none" xmlns="http://www.w3.org/2000/svg">
<path d="M20.828 12.0783V20.5934V25.2699L20.8435 25.2808V29.7086L18.5293 31.0981L18.5397 31.1089L15.3039 33.0552L13.4712 34.1581H13.4608L9.77979 31.9415H9.76944L6.0936 29.7194V25.2808L6.08325 25.2699V20.8421L9.77979 18.6146V18.6038L13.4608 16.3818L17.147 18.6146H17.1573L19.1506 19.8095V12.4676L13.4608 9.03989L6.73557 13.1055L6.72522 13.0947L0.0155311 17.1441V25.2699H0V31.5522V33.385L7.38272 37.8344L13.4608 41.5L20.186 37.4506L20.1964 37.4614L26.9216 33.4066V25.2808V8.42896L26.9112 8.41815L20.828 12.0783Z" fill="#2C2C2C"/>
<path d="M26.9114 0.5L20.8281 4.16555V10.0694L26.9114 6.4038L26.9217 6.41462V0.510813L26.9114 0.5Z" fill="#2C2C2C"/>
<path d="M40.8281 27.7719V13.1158H43.1085V27.7719H40.8281Z" fill="#2C2C2C"/>
<path d="M65.1201 28.1219H64.8339L49.1146 16.8995V27.7715H46.8555V12.7681H47.1417L62.8397 24.0116V13.1154H65.1201V28.1188V28.1219Z" fill="#2C2C2C"/>
<path d="M78.1587 15.0727V27.7719H75.8996V15.0727H67.3047V13.1158H86.7293V15.0727H78.1587Z" fill="#2C2C2C"/>
<path d="M88.9453 27.7719V13.1158H105.036V15.0727H91.2014V18.7058H105.036V20.6205H91.2014V25.8179H105.036V27.7749H88.9453V27.7719Z" fill="#2C2C2C"/>
<path d="M122.378 27.7719L116.438 21.5537H110.65V27.7719H108.391V13.1158H120.91C123.452 13.1158 125.602 14.4868 125.602 17.226C125.602 19.9652 123.498 21.5114 120.931 21.5114H119.287L125.425 27.7749H122.378V27.7719ZM120.426 15.0516H110.65V19.7054H120.624C121.872 19.7054 123.364 19.1407 123.364 17.2713C123.364 15.7915 122.091 15.0546 120.426 15.0546V15.0516Z" fill="#2C2C2C"/>
<path d="M128.801 27.7719V13.1158H131.081V27.7719H128.801Z" fill="#2C2C2C"/>
<path d="M143.796 28.1644C138.708 28.1644 133.91 25.9236 133.91 20.4453C133.91 14.967 138.69 12.7261 143.796 12.7261C148.902 12.7261 153.661 14.9881 153.661 20.4453C153.661 25.9024 148.902 28.1644 143.796 28.1644ZM143.796 14.5744C139.543 14.5744 136.297 16.5313 136.297 20.4453C136.297 24.3592 139.543 26.3162 143.796 26.3162C148.049 26.3162 151.249 24.4015 151.249 20.4453C151.249 16.4891 148.028 14.5744 143.796 14.5744Z" fill="#2C2C2C"/>
<path d="M170.405 27.7719L164.465 21.5537H158.677V27.7719H156.418V13.1158H168.937C171.48 13.1158 173.629 14.4868 173.629 17.226C173.629 19.9652 171.525 21.5114 168.959 21.5114H167.315L173.453 27.7749H170.405V27.7719ZM168.453 15.0516H158.677V19.7054H168.651C169.9 19.7054 171.391 19.1407 171.391 17.2713C171.391 15.7915 170.119 15.0546 168.453 15.0546V15.0516Z" fill="#2C2C2C"/>
</svg>
