<svg width="80" height="80" viewBox="0 0 80 80" fill="none" xmlns="http://www.w3.org/2000/svg">
<path d="M9 14.6251C9 12.623 10.6328 11.0001 12.6471 11.0001H67.3529C69.3672 11.0001 71 12.623 71 14.6251V54.4999C71 56.5019 69.3672 58.1248 67.3529 58.1248H12.6471C10.6328 58.1248 9 56.5019 9 54.4999V14.6251Z" stroke="#2B2A29" stroke-width="2" stroke-linejoin="round"/>
<path d="M34.529 58.1252L33.6172 69.0002M45.4701 58.1252L46.3819 69.0002" stroke="#2B2A29" stroke-width="2" stroke-linecap="round" stroke-linejoin="round"/>
<path d="M52.7647 68.9999H27.2353M71 47.25H9" stroke="#2B2A29" stroke-width="2" stroke-linecap="round"/>
<path d="M40.0003 54.5003C41.0074 54.5003 41.8238 53.6889 41.8238 52.6879C41.8238 51.6868 41.0074 50.8754 40.0003 50.8754C38.9932 50.8754 38.1768 51.6868 38.1768 52.6879C38.1768 53.6889 38.9932 54.5003 40.0003 54.5003Z" fill="#2B2A29"/>
</svg>
