<svg width="80" height="80" viewBox="0 0 80 80" fill="none" xmlns="http://www.w3.org/2000/svg">
<path d="M25.7958 51.3777L18.5444 57M55.3158 51.3777L62.5672 57M65.7531 31.6425C69.0553 31.6425 71.5443 35.0994 70.8971 38.8034L69.5365 46.667C69.0553 49.4022 66.9645 51.3966 64.5086 51.3966H15.4914C13.0521 51.3966 10.9447 49.4212 10.4635 46.667L9.10286 38.8034C8.45572 35.0994 10.9447 31.6425 14.2469 31.6425V29.819C14.2469 26.0391 16.9018 23 20.1873 23H59.7961C63.0982 23 65.7531 26.0391 65.7531 29.8V31.6425Z" stroke="#2B2A29" stroke-width="2" stroke-miterlimit="10" stroke-linecap="round" stroke-linejoin="round"/>
<path d="M56.2784 42.5835L53.557 36.5813C53.2086 35.8025 53.4741 34.8528 54.1544 34.4539L60.9246 30.4271C61.6049 30.0282 62.4346 30.3321 62.783 31.1109L64.5586 35.0428M25.3149 42.4886L28.003 36.5813C28.3515 35.8025 28.086 34.8528 27.4057 34.4539L20.6355 30.4271C19.9552 30.0282 19.1255 30.3321 18.777 31.1109L16.1221 36.9612" stroke="#2B2A29" stroke-width="2" stroke-miterlimit="10" stroke-linecap="round" stroke-linejoin="round"/>
<path d="M65.7534 31.6421L64.5586 35.0231L62.501 40.8544C62.1526 41.8421 61.4888 42.5639 60.6757 42.9438C60.2775 43.1337 59.8295 43.2287 59.3814 43.2097C59.1491 43.2097 58.9168 43.1717 58.6845 43.0957C57.971 42.8868 57.1745 42.7158 56.2785 42.5449C48.4463 41.1013 34.2754 41.0823 25.3149 42.4689C23.8381 42.6968 22.494 42.9628 21.3491 43.2667C21.3159 43.2857 21.2661 43.2857 21.2329 43.3047C20.6854 43.4376 20.1378 43.3806 19.6234 43.2097C19.3579 43.1147 19.109 42.9818 18.8933 42.8298M18.6278 42.6399C18.1631 42.241 17.7815 41.6901 17.5658 41.0443L16.1221 36.9605L14.2471 31.6421M39.9753 31.9128H39.9919M30.7823 31.9128H30.7989M49.1929 31.9128H49.2094" stroke="#2B2A29" stroke-width="2" stroke-miterlimit="10" stroke-linecap="round" stroke-linejoin="round"/>
</svg>
