<svg width="18" height="14" viewBox="0 0 18 14" fill="none" xmlns="http://www.w3.org/2000/svg">
<path d="M6.60156 11.2001L9.00156 13.6001L11.4016 11.2001" stroke="#2B2A29" stroke-width="0.8" stroke-linejoin="round"/>
<path d="M5 11.2001H3.5C2.11929 11.2001 1 10.0361 1 8.60011C1 7.16417 2.11929 6.00011 3.5 6.00011H3.50647C3.50217 5.91401 3.5 5.82732 3.5 5.74011C3.5 3.01182 5.62665 0.80011 8.25 0.80011C10.0915 0.80011 11.6882 1.88991 12.4764 3.48319C12.726 3.42874 12.9848 3.40011 13.25 3.40011C15.3211 3.40011 17 5.1462 17 7.30011C17 8.97486 15.985 10.4031 14.5598 10.9556C14.238 11.1125 13.8789 11.2001 13.5 11.2001H13" stroke="#2B2A29" stroke-width="0.8" stroke-linejoin="round"/>
<path d="M9 13.6001V7.20013" stroke="#2B2A29" stroke-width="0.8" stroke-linejoin="round"/>
</svg>
