<svg width="25" height="25" viewBox="0 0 25 25" fill="none" xmlns="http://www.w3.org/2000/svg">
<path d="M15.3287 8.25691L9.6718 13.9137C9.28127 14.3042 9.28127 14.9374 9.6718 15.3279C10.0623 15.7185 10.6955 15.7185 11.086 15.3279L16.7429 9.67112C17.9144 8.49955 17.9144 6.60006 16.7429 5.42848C15.5713 4.25691 13.6718 4.25691 12.5002 5.42848L6.84337 11.0853C4.89075 13.0379 4.89075 16.2037 6.84337 18.1564C8.79599 20.109 11.9618 20.109 13.9144 18.1564L19.5713 12.4995L20.9855 13.9137L15.3287 19.5706C12.595 22.3042 8.16283 22.3042 5.42916 19.5706C2.69549 16.8369 2.69549 12.4048 5.42916 9.67112L11.086 4.01427C13.0386 2.06165 16.2045 2.06165 18.1571 4.01427C20.1097 5.96689 20.1097 9.13271 18.1571 11.0853L12.5002 16.7422C11.3287 17.9137 9.42916 17.9137 8.25759 16.7422C7.08601 15.5706 7.08601 13.6711 8.25759 12.4995L13.9144 6.8427L15.3287 8.25691Z" fill="#1D62EC"/>
</svg>
