<svg width="24" height="24" viewBox="0 0 24 24" fill="none" xmlns="http://www.w3.org/2000/svg">
<rect x="4" y="8" width="12" height="14" stroke="#2B2A29" stroke-linejoin="round"/>
<path d="M8 2V1.5C7.72386 1.5 7.5 1.72386 7.5 2H8ZM20 2H20.5C20.5 1.72386 20.2761 1.5 20 1.5V2ZM20 16V16.5C20.2761 16.5 20.5 16.2761 20.5 16H20ZM16 15.5C15.7239 15.5 15.5 15.7239 15.5 16C15.5 16.2761 15.7239 16.5 16 16.5V15.5ZM8 2V2.5H20V2V1.5H8V2ZM20 2H19.5V16H20H20.5V2H20ZM8 8H8.5V2H8H7.5V8H8ZM20 16V15.5H16V16V16.5H20V16Z" fill="#2B2A29"/>
</svg>
