<svg width="48" height="48" viewBox="0 0 48 48" fill="none" xmlns="http://www.w3.org/2000/svg">
<path d="M24 40V24" stroke="#2B2A29" stroke-linejoin="round"/>
<path d="M18 30L24 24L30 30" stroke="#2B2A29" stroke-linejoin="round"/>
<path d="M14 32H10.25C6.79822 32 4 29.0898 4 25.5C4 21.9101 6.79822 19 10.25 19H10.2662C10.2554 18.7847 10.25 18.568 10.25 18.35C10.25 11.5293 15.5666 6 22.125 6C26.7287 6 30.7205 8.72449 32.691 12.7077C33.3151 12.5716 33.962 12.5 34.625 12.5C39.8027 12.5 44 16.8652 44 22.25C44 26.4369 41.4624 30.0074 37.8995 31.3888C37.0951 31.7809 36.1971 32 35.25 32H34" stroke="#2B2A29" stroke-linejoin="round"/>
</svg>
